<svg width="1920" height="1920" viewBox="0 0 1920 1920" fill="none" xmlns="http://www.w3.org/2000/svg">
<rect x="7.68" y="7.68" width="1904.64" height="1904.64" stroke="white" stroke-width="15.36"/>
<path d="M140.721 1217H172.54V1167.15H201.177C233.42 1167.15 254.845 1147.85 254.845 1117.94C254.845 1087.81 233.42 1068.51 201.177 1068.51H140.721V1217ZM198.207 1095.03C213.056 1095.03 222.602 1103.72 222.602 1117.94C222.602 1131.94 213.056 1140.63 198.207 1140.63H172.54V1095.03H198.207ZM270.345 1217H300.255V1068.51H270.345V1217ZM425.041 1191.76C420.374 1191.76 418.041 1190.7 418.041 1184.97V1146.36C418.041 1120.27 400.434 1106.69 369.888 1106.69C341.039 1106.69 321.523 1120.69 319.402 1141.91H348.251C349.524 1133.85 357.372 1128.54 369.039 1128.54C381.555 1128.54 388.555 1134.91 388.555 1144.66V1149.97H366.918C334.25 1149.97 316.856 1163.12 316.856 1186.24C316.856 1207.03 333.826 1218.27 357.372 1218.27C374.343 1218.27 385.373 1211.27 393.01 1199.18C392.798 1209.58 397.677 1217 413.162 1217H428.435V1191.76H425.041ZM388.555 1172.03C388.343 1186.88 378.797 1196.64 363.1 1196.64C353.13 1196.64 346.978 1191.76 346.978 1184.12C346.978 1175 354.19 1169.91 366.706 1169.91H388.555V1172.03ZM447.855 1185.82C447.855 1206.61 458.249 1217 479.037 1217H503.432V1191.76H488.583C480.734 1191.76 477.765 1188.57 477.765 1180.94V1133.21H502.796V1107.97H477.765V1077.42H447.855V1107.97H429.824V1133.21H447.855V1185.82ZM532.336 1096.3C542.094 1096.3 549.73 1089.09 549.73 1079.54C549.73 1069.78 542.094 1062.57 532.336 1062.57C522.578 1062.57 514.941 1069.78 514.941 1079.54C514.941 1089.09 522.578 1096.3 532.336 1096.3ZM517.275 1217H547.397V1107.97H517.275V1217ZM630.606 1106.69C613.847 1106.69 603.878 1113.06 596.877 1121.54L594.12 1107.97H568.028V1217H597.938V1161.21C597.938 1142.33 606.847 1131.3 622.333 1131.3C637.394 1131.3 644.394 1141.06 644.394 1159.51V1217H674.304V1156.54C674.304 1119.21 654.152 1106.69 630.606 1106.69ZM765.91 1162.48C765.91 1182.64 757.212 1193.45 742.364 1193.45C727.515 1193.45 721.151 1183.91 721.151 1164.39V1107.97H691.241V1168.42C691.241 1207.03 712.029 1218.27 734.515 1218.27C750 1218.27 759.546 1212.33 766.546 1203.85L769.304 1217H795.82V1107.97H765.91V1162.48ZM947.073 1106.69C930.527 1106.69 917.799 1113.48 910.163 1125.15C903.375 1111.36 890.859 1106.48 877.495 1106.69C861.586 1106.91 852.04 1113.06 845.464 1121.54L842.706 1107.97H816.615V1217H846.525V1157.6C846.525 1141.27 855.01 1131.3 867.949 1131.3C881.101 1131.3 887.041 1139.79 887.041 1156.12V1217H916.951V1157.39C916.951 1140.85 925.648 1131.3 938.588 1131.3C951.528 1131.3 957.467 1139.79 957.467 1156.12V1217H987.377V1154.42C987.377 1119.42 969.558 1106.69 947.073 1106.69ZM1052.63 1095.88H1095.48V1217H1127.3V1095.88H1170.36V1068.51H1052.63V1095.88ZM1236.92 1107.97C1219.95 1107.97 1211.46 1114.54 1205.53 1124.3L1202.77 1107.97H1175.62V1217H1205.53V1163.54C1205.53 1147 1212.31 1135.12 1230.13 1135.12H1242.01V1107.97H1236.92ZM1328.13 1162.48C1328.13 1182.64 1319.43 1193.45 1304.58 1193.45C1289.73 1193.45 1283.37 1183.91 1283.37 1164.39V1107.97H1253.46V1168.42C1253.46 1207.03 1274.25 1218.27 1296.73 1218.27C1312.22 1218.27 1321.77 1212.33 1328.77 1203.85L1331.52 1217H1358.04V1107.97H1328.13V1162.48ZM1373.74 1180.73C1375.02 1204.06 1395.59 1218.27 1425.93 1218.27C1455.2 1218.27 1475.56 1204.48 1475.56 1182.85C1475.56 1158.24 1454.78 1152.51 1429.75 1149.97C1414.05 1148.06 1404.71 1147.21 1404.71 1138.94C1404.71 1131.94 1412.35 1127.69 1424.02 1127.69C1436.11 1127.69 1444.38 1133 1445.23 1141.69H1473.87C1472.38 1119.42 1452.23 1106.48 1422.96 1106.48C1394.96 1106.27 1376.08 1120.48 1376.08 1142.12C1376.08 1164.6 1395.8 1170.33 1421.26 1173.3C1438.87 1175.64 1446.29 1176.27 1446.29 1185.18C1446.29 1192.82 1438.65 1196.85 1426.14 1196.85C1411.5 1196.85 1403.23 1190.27 1402.17 1180.73H1373.74ZM1499.17 1185.82C1499.17 1206.61 1509.56 1217 1530.35 1217H1554.75V1191.76H1539.9C1532.05 1191.76 1529.08 1188.57 1529.08 1180.94V1133.21H1554.11V1107.97H1529.08V1077.42H1499.17V1107.97H1481.14V1133.21H1499.17V1185.82ZM1620.81 1218.27C1649.87 1218.27 1668.75 1201.3 1672.15 1180.09H1642.66C1640.12 1190.27 1631.63 1195.58 1619.54 1195.58C1604.48 1195.58 1594.51 1186.24 1593.87 1170.76V1169.27H1673C1673.63 1165.88 1673.84 1162.27 1673.84 1159.09C1673.42 1127.06 1651.36 1106.69 1618.69 1106.69C1584.96 1106.69 1562.69 1128.75 1562.69 1162.7C1562.69 1196.42 1584.54 1218.27 1620.81 1218.27ZM1594.51 1149.76C1596.21 1136.82 1605.96 1128.97 1618.9 1128.97C1632.48 1128.97 1641.6 1136.39 1643.72 1149.76H1594.51ZM1769.31 1121.54C1762.31 1112.63 1751.49 1106.69 1736.43 1106.69C1707.37 1106.69 1685.95 1128.54 1685.95 1162.27C1685.95 1196.85 1707.37 1218.27 1736.65 1218.27C1752.34 1218.27 1762.95 1211.27 1770.16 1201.94L1773.13 1217H1799.22V1068.51H1769.31V1121.54ZM1743.22 1193.88C1726.89 1193.88 1716.49 1181.15 1716.49 1162.48C1716.49 1143.82 1726.89 1131.09 1743.22 1131.09C1759.56 1131.09 1769.74 1144.03 1769.74 1162.7C1769.74 1181.15 1759.56 1193.88 1743.22 1193.88ZM134.781 1401.21C134.993 1431.33 158.539 1451.27 196.298 1451.27C231.087 1451.27 253.997 1432.18 254.209 1404.39C254.421 1374.48 231.936 1366.85 206.48 1362.18C181.873 1357.51 170.206 1354.97 170.206 1342.88C170.206 1331.42 179.964 1325.69 193.54 1325.69C209.026 1325.69 218.572 1334.39 220.056 1346.91H251.239C250.815 1318.48 228.541 1300.24 193.54 1300.24C160.024 1300.24 138.175 1318.91 138.175 1345.21C138.175 1375.33 160.237 1383.39 185.268 1388.06C210.086 1392.94 222.178 1395.48 222.178 1408C222.178 1419.67 211.359 1426.03 196.722 1426.03C178.479 1426.03 167.025 1416.06 165.964 1401.63L134.781 1401.21ZM324.847 1451.27C353.909 1451.27 372.788 1434.3 376.182 1413.09H346.696C344.151 1423.27 335.666 1428.58 323.575 1428.58C308.513 1428.58 298.543 1419.24 297.907 1403.76V1402.27H377.031C377.667 1398.88 377.879 1395.27 377.879 1392.09C377.455 1360.06 355.394 1339.69 322.726 1339.69C288.998 1339.69 266.724 1361.75 266.724 1395.7C266.724 1429.42 288.574 1451.27 324.847 1451.27ZM298.543 1382.76C300.241 1369.82 309.998 1361.97 322.938 1361.97C336.514 1361.97 345.636 1369.39 347.757 1382.76H298.543ZM455.529 1340.97C438.559 1340.97 430.074 1347.54 424.134 1357.3L421.377 1340.97H394.224V1450H424.134V1396.54C424.134 1380 430.923 1368.12 448.741 1368.12H460.62V1340.97H455.529ZM504.688 1450H541.81L581.054 1340.97H549.659L523.78 1419.45L497.476 1340.97H465.445L504.688 1450ZM606.083 1329.3C615.841 1329.3 623.478 1322.09 623.478 1312.54C623.478 1302.78 615.841 1295.57 606.083 1295.57C596.325 1295.57 588.689 1302.78 588.689 1312.54C588.689 1322.09 596.325 1329.3 606.083 1329.3ZM591.022 1450H621.144V1340.97H591.022V1450ZM693.11 1451.27C722.808 1451.27 742.536 1434.94 746.778 1408.85H715.384C713.262 1419.88 705.414 1426.88 693.747 1426.88C678.049 1426.88 668.079 1414.15 668.079 1395.48C668.079 1377.03 678.049 1364.09 693.747 1364.09C705.414 1364.09 712.838 1370.88 715.384 1381.69H746.566C742.324 1355.82 723.869 1339.69 694.171 1339.69C659.594 1339.69 637.533 1361.75 637.533 1395.48C637.533 1429.85 658.533 1451.27 693.11 1451.27ZM816.427 1451.27C845.489 1451.27 864.368 1434.3 867.762 1413.09H838.277C835.731 1423.27 827.246 1428.58 815.155 1428.58C800.094 1428.58 790.124 1419.24 789.487 1403.76V1402.27H868.611C869.247 1398.88 869.459 1395.27 869.459 1392.09C869.035 1360.06 846.974 1339.69 814.306 1339.69C780.578 1339.69 758.305 1361.75 758.305 1395.7C758.305 1429.42 780.154 1451.27 816.427 1451.27ZM790.124 1382.76C791.821 1369.82 801.578 1361.97 814.518 1361.97C828.094 1361.97 837.216 1369.39 839.337 1382.76H790.124ZM961.756 1450L973.211 1417.54H1029.64L1041.09 1450H1075.24L1021.36 1301.51H983.181L928.876 1450H961.756ZM1001.21 1335.45L1020.94 1391.88H981.696L1001.21 1335.45ZM1100.8 1450H1132.62L1152.14 1384.24L1171.23 1450H1203.05L1238.9 1340.97H1208.35L1186.08 1417.97L1166.14 1340.97H1139.2L1118.62 1417.76L1096.77 1340.97H1065.16L1100.8 1450ZM1348.33 1424.76C1343.67 1424.76 1341.33 1423.7 1341.33 1417.97V1379.36C1341.33 1353.27 1323.73 1339.69 1293.18 1339.69C1264.33 1339.69 1244.82 1353.69 1242.69 1374.91H1271.54C1272.82 1366.85 1280.66 1361.54 1292.33 1361.54C1304.85 1361.54 1311.85 1367.91 1311.85 1377.66V1382.97H1290.21C1257.54 1382.97 1240.15 1396.12 1240.15 1419.24C1240.15 1440.03 1257.12 1451.27 1280.66 1451.27C1297.63 1451.27 1308.67 1444.27 1316.3 1432.18C1316.09 1442.58 1320.97 1450 1336.45 1450H1351.73V1424.76H1348.33ZM1311.85 1405.03C1311.64 1419.88 1302.09 1429.64 1286.39 1429.64C1276.42 1429.64 1270.27 1424.76 1270.27 1417.12C1270.27 1408 1277.48 1402.91 1290 1402.91H1311.85V1405.03ZM1424.6 1340.97C1407.63 1340.97 1399.15 1347.54 1393.21 1357.3L1390.45 1340.97H1363.3V1450H1393.21V1396.54C1393.21 1380 1400 1368.12 1417.81 1368.12H1429.69V1340.97H1424.6ZM1518.65 1354.54C1511.65 1345.63 1500.84 1339.69 1485.78 1339.69C1456.71 1339.69 1435.29 1361.54 1435.29 1395.27C1435.29 1429.85 1456.71 1451.27 1485.99 1451.27C1501.68 1451.27 1512.29 1444.27 1519.5 1434.94L1522.47 1450H1548.56V1301.51H1518.65V1354.54ZM1492.56 1426.88C1476.23 1426.88 1465.84 1414.15 1465.84 1395.48C1465.84 1376.82 1476.23 1364.09 1492.56 1364.09C1508.9 1364.09 1519.08 1377.03 1519.08 1395.7C1519.08 1414.15 1508.9 1426.88 1492.56 1426.88Z" fill="white"/>
<path d="M131.63 1778.8V1759.58L177.693 1721.48C188.257 1712.82 194.837 1705.55 194.837 1695.68C194.837 1683.73 187.045 1677.49 175.962 1677.49C164.359 1677.49 156.393 1685.46 156.393 1698.62V1700.53H131.283V1697.06C131.283 1674.2 148.427 1656.54 176.135 1656.54C204.535 1656.54 219.947 1671.95 219.947 1694.64C219.947 1712.48 210.249 1723.38 195.01 1735.68L167.823 1757.85H220.64V1778.8H131.63ZM231.294 1720.96V1715.42C231.294 1679.23 251.901 1656.54 281.167 1656.54C310.606 1656.54 331.213 1679.23 331.213 1715.42V1720.96C331.213 1757.85 310.606 1779.84 281.167 1779.84C251.901 1779.84 231.294 1757.85 231.294 1720.96ZM306.277 1720.09V1716.28C306.277 1691.35 296.06 1677.67 281.167 1677.67C266.448 1677.67 256.23 1691.35 256.23 1716.28V1720.09C256.23 1745.2 266.448 1758.71 281.167 1758.71C296.06 1758.71 306.277 1745.2 306.277 1720.09ZM340.822 1778.8V1759.58L386.885 1721.48C397.449 1712.82 404.029 1705.55 404.029 1695.68C404.029 1683.73 396.237 1677.49 385.154 1677.49C373.551 1677.49 365.585 1685.46 365.585 1698.62V1700.53H340.475V1697.06C340.475 1674.2 357.619 1656.54 385.327 1656.54C413.727 1656.54 429.139 1671.95 429.139 1694.64C429.139 1712.48 419.441 1723.38 404.202 1735.68L377.015 1757.85H429.832V1778.8H340.822ZM435.496 1752.82V1732.22L489.006 1657.58H519.311V1732.04H536.109V1752.82H519.311V1778.8H494.894V1752.82H435.496ZM494.894 1682.34L459.394 1732.04H494.894V1682.34Z" fill="white"/>
<path d="M1229.54 1704.53H1173.43C1175.9 1693.13 1186.4 1685.54 1201.14 1685.54C1215.89 1685.54 1225.29 1692.25 1229.54 1704.53M1265.09 1729.56V1725.75C1265.09 1681.04 1238.95 1653.55 1200.74 1653.55C1184.43 1653.55 1168.56 1660.26 1156.47 1672.32C1144.63 1684.16 1138.16 1699.6 1138.16 1716.34C1138.16 1733.09 1144.19 1748.52 1155.81 1760.83C1168.12 1773.79 1182.87 1780.04 1201.17 1780.04C1228.01 1780.04 1247.88 1767.3 1259.5 1742.27H1220.61C1215.23 1746.96 1209.42 1748.99 1202.27 1748.99C1186.83 1748.99 1177.68 1742.27 1174.56 1729.56H1265.06H1265.09Z" fill="white"/>
<path d="M1363.15 1704.53H1307.04C1309.51 1693.13 1320.01 1685.54 1334.75 1685.54C1349.5 1685.54 1358.87 1692.25 1363.15 1704.53M1398.7 1729.56V1725.75C1398.7 1681.04 1372.55 1653.55 1334.35 1653.55C1318.04 1653.55 1302.17 1660.26 1290.08 1672.32C1278.24 1684.16 1271.77 1699.6 1271.77 1716.34C1271.77 1733.09 1277.8 1748.52 1289.42 1760.83C1301.73 1773.79 1316.48 1780.04 1334.78 1780.04C1361.62 1780.04 1381.49 1767.3 1393.11 1742.27H1354.22C1348.84 1746.96 1343.03 1748.99 1335.91 1748.99C1320.48 1748.99 1311.32 1742.27 1308.2 1729.56H1398.7V1729.56Z" fill="white"/>
<path d="M1088.15 1683.96V1777.16H1122.79V1683.96H1136.88V1657.16H1122.79V1654.25C1122.79 1643.29 1125.26 1639.73 1135.98 1639.73H1136.88V1615.58C1134.88 1615.58 1133.07 1615.36 1131.29 1615.36C1101.77 1615.36 1087.93 1626.98 1087.93 1652.69C1087.93 1654.04 1088.15 1655.6 1088.15 1657.16H1075.18V1684H1088.15V1683.96Z" fill="white"/>
<path d="M1412.17 1683.97V1777.16H1446.81V1683.97H1460.9V1657.16H1446.81V1654.26C1446.81 1643.29 1449.28 1639.73 1460 1639.73H1460.87V1615.58C1458.87 1615.58 1457.06 1615.36 1455.28 1615.36C1425.79 1615.36 1411.92 1626.98 1411.92 1652.7C1411.92 1654.04 1412.14 1655.6 1412.14 1657.16H1399.17V1684H1412.14L1412.17 1683.97Z" fill="white"/>
<path d="M1552.49 1717.27C1552.49 1733.58 1539.74 1746.76 1524.12 1746.76C1508.5 1746.76 1495.72 1733.58 1495.72 1717.27C1495.72 1700.96 1508.47 1687.56 1524.12 1687.56C1539.77 1687.56 1552.49 1700.75 1552.49 1717.27ZM1587.57 1716.4C1587.57 1700.09 1580.64 1683.53 1567.92 1671.47C1555.86 1660.07 1540.9 1654.04 1523.44 1654.04C1507.13 1654.04 1491.26 1660.76 1479.17 1672.82C1467.33 1684.66 1460.86 1700.09 1460.86 1716.84C1460.86 1733.58 1466.89 1749.01 1478.51 1761.1C1490.82 1774.07 1505.57 1780.32 1523.87 1780.32C1542.18 1780.32 1557.18 1773.85 1569.49 1761.54C1581.54 1749.48 1587.57 1734.49 1587.57 1716.4" fill="white"/>
<path d="M1641.73 1696.91C1624.73 1695.88 1611.05 1682.23 1610.11 1665.2H1684.46V1664.39C1684.46 1635.18 1665.81 1615.72 1640.01 1615.72C1612.77 1615.72 1594.27 1635.68 1594.27 1661.61C1594.27 1686.1 1613.42 1707.69 1639.54 1707.69C1658.53 1707.69 1673.62 1697.16 1681.71 1677.67H1674.22C1668.81 1689.07 1657.22 1696.94 1643.76 1696.94C1643.07 1696.94 1642.44 1696.94 1641.76 1696.88" fill="white"/>
<path d="M1736.15 1696.91C1753.14 1695.88 1766.83 1682.23 1767.76 1665.2H1693.41V1664.39C1693.41 1635.18 1712.06 1615.72 1737.87 1615.72C1765.11 1615.72 1783.6 1635.68 1783.6 1661.61C1783.6 1686.1 1764.45 1707.69 1738.33 1707.69C1719.37 1707.69 1704.28 1697.16 1696.16 1677.67H1703.69C1709.09 1689.07 1720.68 1696.94 1734.15 1696.94C1734.84 1696.94 1735.46 1696.94 1736.15 1696.88" fill="white"/>
<path d="M128.042 377.598L428.842 678.398L729.642 377.598H128.042Z" fill="white" fill-opacity="0.7"/>
<path d="M128.042 377.602H428.842V76.8021L128.042 377.602Z" fill="url(#paint0_linear_1931_407367)"/>
<path d="M729.637 377.598H428.837V678.398L729.637 377.598Z" fill="white"/>
<path d="M642.767 892.308L428.865 678.405L214.963 892.308H642.767Z" fill="white"/>
<defs>
<linearGradient id="paint0_linear_1931_407367" x1="128.042" y1="227.202" x2="428.842" y2="227.202" gradientUnits="userSpaceOnUse">
<stop offset="0.4062" stop-color="white" stop-opacity="0.8"/>
<stop offset="1" stop-color="white" stop-opacity="0"/>
</linearGradient>
</defs>
</svg>
