<svg width="1920" height="602" viewBox="0 0 1920 602" fill="none" xmlns="http://www.w3.org/2000/svg">
<path d="M5.5814 5.5814H1914.42V595.721H5.5814V5.5814Z" stroke="white" stroke-width="11.1628"/>
<path d="M465.488 203.372H486.882V169.855H506.136C527.815 169.855 542.22 156.877 542.22 136.767C542.22 116.514 527.815 103.535 506.136 103.535H465.488V203.372ZM504.139 121.363C514.123 121.363 520.541 127.211 520.541 136.767C520.541 146.18 514.123 152.027 504.139 152.027H486.882V121.363H504.139ZM552.641 203.372H572.751V103.535H552.641V203.372ZM656.651 186.4C653.513 186.4 651.945 185.687 651.945 181.836V155.878C651.945 138.335 640.107 129.208 619.569 129.208C600.172 129.208 587.051 138.621 585.624 152.883H605.021C605.877 147.463 611.154 143.898 618.998 143.898C627.413 143.898 632.12 148.177 632.12 154.737V158.303H617.572C595.608 158.303 583.913 167.146 583.913 182.692C583.913 196.669 595.323 204.228 611.154 204.228C622.564 204.228 629.98 199.521 635.115 191.392C634.972 198.38 638.253 203.372 648.664 203.372H658.933V186.4H656.651ZM632.12 173.136C631.977 183.119 625.559 189.68 615.005 189.68C608.302 189.68 604.166 186.4 604.166 181.265C604.166 175.132 609.015 171.71 617.43 171.71H632.12V173.136ZM671.99 182.406C671.99 196.383 678.979 203.372 692.956 203.372H709.357V186.4H699.374C694.097 186.4 692.1 184.26 692.1 179.126V147.036H708.93V130.063H692.1V109.525H671.99V130.063H659.867V147.036H671.99V182.406ZM728.791 122.219C735.352 122.219 740.486 117.37 740.486 110.952C740.486 104.391 735.352 99.5417 728.791 99.5417C722.23 99.5417 717.096 104.391 717.096 110.952C717.096 117.37 722.23 122.219 728.791 122.219ZM718.665 203.372H738.917V130.063H718.665V203.372ZM794.863 129.208C783.596 129.208 776.892 133.486 772.186 139.191L770.331 130.063H752.789V203.372H772.899V165.862C772.899 153.168 778.889 145.752 789.3 145.752C799.427 145.752 804.133 152.313 804.133 164.721V203.372H824.243V162.724C824.243 137.622 810.694 129.208 794.863 129.208ZM885.835 166.718C885.835 180.267 879.987 187.541 870.003 187.541C860.02 187.541 855.741 181.123 855.741 168.001V130.063H835.631V170.711C835.631 196.669 849.608 204.228 864.726 204.228C875.138 204.228 881.556 200.234 886.263 194.529L888.117 203.372H905.945V130.063H885.835V166.718ZM1007.64 129.208C996.515 129.208 987.958 133.772 982.824 141.616C978.26 132.345 969.845 129.065 960.859 129.208C950.163 129.35 943.745 133.486 939.323 139.191L937.469 130.063H919.926V203.372H940.036V163.437C940.036 152.455 945.741 145.752 954.441 145.752C963.284 145.752 967.278 151.457 967.278 162.439V203.372H987.388V163.295C987.388 152.17 993.235 145.752 1001.94 145.752C1010.64 145.752 1014.63 151.457 1014.63 162.439V203.372H1034.74V161.298C1034.74 137.765 1022.76 129.208 1007.64 129.208ZM1078.61 121.934H1107.42V203.372H1128.81V121.934H1157.77V103.535H1078.61V121.934ZM1202.52 130.063C1191.11 130.063 1185.4 134.485 1181.41 141.045L1179.56 130.063H1161.3V203.372H1181.41V167.431C1181.41 156.306 1185.97 148.319 1197.96 148.319H1205.94V130.063H1202.52ZM1263.84 166.718C1263.84 180.267 1258 187.541 1248.01 187.541C1238.03 187.541 1233.75 181.123 1233.75 168.001V130.063H1213.64V170.711C1213.64 196.669 1227.62 204.228 1242.74 204.228C1253.15 204.228 1259.57 200.234 1264.27 194.529L1266.13 203.372H1283.95V130.063H1263.84V166.718ZM1294.51 178.983C1295.37 194.672 1309.2 204.228 1329.6 204.228C1349.28 204.228 1362.97 194.957 1362.97 180.41C1362.97 163.865 1349 160.014 1332.17 158.303C1321.61 157.019 1315.34 156.449 1315.34 150.886C1315.34 146.18 1320.47 143.327 1328.31 143.327C1336.44 143.327 1342.01 146.893 1342.58 152.741H1361.83C1360.83 137.765 1347.28 129.065 1327.6 129.065C1308.78 128.922 1296.08 138.478 1296.08 153.026C1296.08 168.144 1309.35 171.995 1326.46 173.992C1338.3 175.56 1343.29 175.988 1343.29 181.978C1343.29 187.113 1338.16 189.823 1329.74 189.823C1319.9 189.823 1314.34 185.401 1313.62 178.983H1294.51ZM1378.84 182.406C1378.84 196.383 1385.83 203.372 1399.81 203.372H1416.21V186.4H1406.23C1400.95 186.4 1398.95 184.26 1398.95 179.126V147.036H1415.78V130.063H1398.95V109.525H1378.84V130.063H1366.72V147.036H1378.84V182.406ZM1460.63 204.228C1480.17 204.228 1492.86 192.818 1495.14 178.555H1475.32C1473.61 185.401 1467.9 188.967 1459.77 188.967C1449.65 188.967 1442.94 182.692 1442.52 172.28V171.282H1495.72C1496.14 169 1496.29 166.575 1496.29 164.436C1496 142.899 1481.17 129.208 1459.2 129.208C1436.53 129.208 1421.55 144.04 1421.55 166.86C1421.55 189.538 1436.24 204.228 1460.63 204.228ZM1442.94 158.16C1444.09 149.46 1450.65 144.183 1459.35 144.183C1468.47 144.183 1474.61 149.175 1476.03 158.16H1442.94ZM1560.47 139.191C1555.77 133.201 1548.49 129.208 1538.37 129.208C1518.83 129.208 1504.42 143.898 1504.42 166.575C1504.42 189.823 1518.83 204.228 1538.51 204.228C1549.06 204.228 1556.2 199.521 1561.04 193.246L1563.04 203.372H1580.58V103.535H1560.47V139.191ZM1542.93 187.826C1531.95 187.826 1524.96 179.269 1524.96 166.718C1524.96 154.167 1531.95 145.609 1542.93 145.609C1553.91 145.609 1560.76 154.309 1560.76 166.86C1560.76 179.269 1553.91 187.826 1542.93 187.826ZM461.495 313.569C461.637 333.821 477.469 347.228 502.856 347.228C526.246 347.228 541.649 334.392 541.792 315.708C541.935 295.598 526.816 290.463 509.702 287.326C493.157 284.188 485.313 282.476 485.313 274.347C485.313 266.645 491.874 262.794 501.002 262.794C511.413 262.794 517.831 268.642 518.83 277.057H539.795C539.51 257.945 524.534 245.679 501.002 245.679C478.467 245.679 463.777 258.23 463.777 275.916C463.777 296.168 478.61 301.588 495.439 304.726C512.126 308.006 520.256 309.718 520.256 318.132C520.256 325.977 512.982 330.256 503.141 330.256C490.875 330.256 483.173 323.552 482.46 313.854L461.495 313.569ZM589.286 347.228C608.825 347.228 621.519 335.818 623.801 321.555H603.976C602.265 328.401 596.56 331.967 588.43 331.967C578.304 331.967 571.6 325.692 571.173 315.28V314.282H624.371C624.799 312 624.942 309.575 624.942 307.436C624.657 285.899 609.824 272.208 587.86 272.208C565.182 272.208 550.207 287.04 550.207 309.86C550.207 332.538 564.897 347.228 589.286 347.228ZM571.6 301.16C572.741 292.46 579.302 287.183 588.002 287.183C597.13 287.183 603.263 292.175 604.689 301.16H571.6ZM677.15 273.063C665.74 273.063 660.035 277.485 656.042 284.045L654.188 273.063H635.932V346.372H656.042V310.431C656.042 299.306 660.606 291.319 672.586 291.319H680.573V273.063H677.15ZM710.202 346.372H735.161L761.547 273.063H740.438L723.038 325.834L705.353 273.063H683.817L710.202 346.372ZM778.375 265.219C784.936 265.219 790.07 260.37 790.07 253.952C790.07 247.391 784.936 242.542 778.375 242.542C771.815 242.542 766.68 247.391 766.68 253.952C766.68 260.37 771.815 265.219 778.375 265.219ZM768.249 346.372H788.502V273.063H768.249V346.372ZM836.888 347.228C856.855 347.228 870.119 336.246 872.972 318.703H851.863C850.437 326.119 845.16 330.826 837.316 330.826C826.762 330.826 820.058 322.269 820.058 309.718C820.058 297.309 826.762 288.609 837.316 288.609C845.16 288.609 850.152 293.173 851.863 300.447H872.829C869.977 283.047 857.568 272.208 837.601 272.208C814.353 272.208 799.52 287.04 799.52 309.718C799.52 332.823 813.64 347.228 836.888 347.228ZM919.8 347.228C939.34 347.228 952.033 335.818 954.315 321.555H934.491C932.779 328.401 927.074 331.967 918.945 331.967C908.818 331.967 902.115 325.692 901.687 315.28V314.282H954.886C955.314 312 955.456 309.575 955.456 307.436C955.171 285.899 940.338 272.208 918.374 272.208C895.697 272.208 880.721 287.04 880.721 309.86C880.721 332.538 895.412 347.228 919.8 347.228ZM902.115 301.16C903.256 292.46 909.817 287.183 918.517 287.183C927.645 287.183 933.778 292.175 935.204 301.16H902.115ZM1017.51 346.372L1025.21 324.551H1063.15L1070.85 346.372H1093.82L1057.59 246.535H1031.92L995.406 346.372H1017.51ZM1044.04 269.355L1057.3 307.293H1030.92L1044.04 269.355ZM1111 346.372H1132.39L1145.52 302.159L1158.35 346.372H1179.75L1203.85 273.063H1183.31L1168.34 324.836L1154.93 273.063H1136.82L1122.98 324.693L1108.29 273.063H1087.04L1111 346.372ZM1277.43 329.4C1274.29 329.4 1272.72 328.687 1272.72 324.836V298.878C1272.72 281.335 1260.88 272.208 1240.35 272.208C1220.95 272.208 1207.83 281.621 1206.4 295.883H1225.8C1226.65 290.463 1231.93 286.898 1239.78 286.898C1248.19 286.898 1252.9 291.177 1252.9 297.737V301.303H1238.35C1216.38 301.303 1204.69 310.146 1204.69 325.692C1204.69 339.669 1216.1 347.228 1231.93 347.228C1243.34 347.228 1250.76 342.521 1255.89 334.392C1255.75 341.38 1259.03 346.372 1269.44 346.372H1279.71V329.4H1277.43ZM1252.9 316.136C1252.75 326.119 1246.34 332.68 1235.78 332.68C1229.08 332.68 1224.94 329.4 1224.94 324.265C1224.94 318.132 1229.79 314.71 1238.21 314.71H1252.9V316.136ZM1328.71 273.063C1317.3 273.063 1311.59 277.485 1307.6 284.045L1305.75 273.063H1287.49V346.372H1307.6V310.431C1307.6 299.306 1312.16 291.319 1324.14 291.319H1332.13V273.063H1328.71ZM1391.94 282.191C1387.24 276.201 1379.96 272.208 1369.84 272.208C1350.3 272.208 1335.89 286.898 1335.89 309.575C1335.89 332.823 1350.3 347.228 1369.98 347.228C1380.53 347.228 1387.67 342.521 1392.51 336.246L1394.51 346.372H1412.05V246.535H1391.94V282.191ZM1374.4 330.826C1363.42 330.826 1356.43 322.269 1356.43 309.718C1356.43 297.167 1363.42 288.609 1374.4 288.609C1385.38 288.609 1392.23 297.309 1392.23 309.86C1392.23 322.269 1385.38 330.826 1374.4 330.826Z" fill="white"/>
<path d="M463.342 496.837V486.181L488.878 465.061C494.734 460.261 498.382 456.229 498.382 450.757C498.382 444.133 494.062 440.677 487.918 440.677C481.486 440.677 477.07 445.093 477.07 452.389V453.445H463.15V451.525C463.15 438.853 472.654 429.061 488.014 429.061C503.758 429.061 512.302 437.605 512.302 450.181C512.302 460.069 506.926 466.117 498.478 472.933L483.406 485.221H512.686V496.837H463.342ZM518.592 464.773V461.701C518.592 441.637 530.016 429.061 546.24 429.061C562.56 429.061 573.984 441.637 573.984 461.701V464.773C573.984 485.221 562.56 497.413 546.24 497.413C530.016 497.413 518.592 485.221 518.592 464.773ZM560.16 464.293V462.181C560.16 448.357 554.496 440.773 546.24 440.773C538.08 440.773 532.416 448.357 532.416 462.181V464.293C532.416 478.213 538.08 485.701 546.24 485.701C554.496 485.701 560.16 478.213 560.16 464.293ZM579.311 496.837V486.181L604.847 465.061C610.703 460.261 614.351 456.229 614.351 450.757C614.351 444.133 610.031 440.677 603.887 440.677C597.455 440.677 593.039 445.093 593.039 452.389V453.445H579.119V451.525C579.119 438.853 588.623 429.061 603.983 429.061C619.727 429.061 628.271 437.605 628.271 450.181C628.271 460.069 622.895 466.117 614.447 472.933L599.375 485.221H628.655V496.837H579.311ZM631.795 482.437V471.013L661.459 429.637H678.259V470.917H687.571V482.437H678.259V496.837H664.723V482.437H631.795ZM664.723 443.365L645.043 470.917H664.723V443.365Z" fill="white"/>
<path d="M73.6768 237.709L225.062 389.094L376.446 237.709H73.6768Z" fill="white" fill-opacity="0.7"/>
<path d="M73.6768 237.711H225.062V86.3257L73.6768 237.711Z" fill="url(#paint0_linear_1931_407577)"/>
<path d="M376.445 237.709H225.061V389.094L376.445 237.709Z" fill="white"/>
<path d="M332.712 496.748L225.061 389.097L117.409 496.748H332.712Z" fill="white"/>
<path d="M1532.65 456.482H1502.49C1503.82 450.354 1509.46 446.273 1517.39 446.273C1525.31 446.273 1530.37 449.883 1532.65 456.482M1551.76 469.932V467.883C1551.76 443.856 1537.7 429.08 1517.17 429.08C1508.4 429.08 1499.87 432.69 1493.38 439.171C1487.01 445.535 1483.54 453.829 1483.54 462.829C1483.54 471.829 1486.78 480.124 1493.02 486.739C1499.64 493.707 1507.56 497.065 1517.4 497.065C1531.83 497.065 1542.51 490.215 1548.75 476.765H1527.85C1524.96 479.284 1521.84 480.375 1517.99 480.375C1509.7 480.375 1504.78 476.765 1503.1 469.932H1551.74H1551.76Z" fill="white"/>
<path d="M1604.46 456.482H1574.31C1575.63 450.354 1581.28 446.273 1589.2 446.273C1597.13 446.273 1602.16 449.883 1604.46 456.482M1623.57 469.932V467.883C1623.57 443.856 1609.52 429.08 1588.98 429.08C1580.22 429.08 1571.69 432.69 1565.19 439.171C1558.83 445.535 1555.35 453.829 1555.35 462.829C1555.35 471.829 1558.59 480.124 1564.84 486.739C1571.45 493.707 1579.38 497.065 1589.22 497.065C1603.64 497.065 1614.32 490.215 1620.57 476.765H1599.66C1596.77 479.284 1593.65 480.375 1589.82 480.375C1581.53 480.375 1576.61 476.765 1574.93 469.932H1623.57V469.932Z" fill="white"/>
<path d="M1456.64 445.43V495.517H1475.27V445.43H1482.84V431.024H1475.27V429.463C1475.27 423.569 1476.59 421.655 1482.35 421.655H1482.84V408.676C1481.76 408.676 1480.79 408.558 1479.83 408.558C1463.97 408.558 1456.53 414.804 1456.53 428.623C1456.53 429.345 1456.64 430.185 1456.64 431.024H1449.68V445.447H1456.64V445.43Z" fill="white"/>
<path d="M1630.8 445.434V495.52H1649.42V445.434H1656.99V431.027H1649.42V429.466C1649.42 423.572 1650.75 421.658 1656.51 421.658H1656.98V408.679C1655.9 408.679 1654.93 408.561 1653.97 408.561C1638.12 408.561 1630.67 414.807 1630.67 428.626C1630.67 429.348 1630.78 430.188 1630.78 431.027H1623.82V445.45H1630.78L1630.8 445.434Z" fill="white"/>
<path d="M1706.18 463.33C1706.18 472.095 1699.33 479.18 1690.93 479.18C1682.54 479.18 1675.67 472.095 1675.67 463.33C1675.67 454.565 1682.52 447.362 1690.93 447.362C1699.35 447.362 1706.18 454.448 1706.18 463.33ZM1725.04 462.86C1725.04 454.095 1721.31 445.196 1714.47 438.715C1707.99 432.586 1699.95 429.345 1690.56 429.345C1681.8 429.345 1673.27 432.955 1666.77 439.437C1660.41 445.8 1656.93 454.095 1656.93 463.095C1656.93 472.095 1660.17 480.389 1666.42 486.887C1673.03 493.855 1680.96 497.213 1690.8 497.213C1700.64 497.213 1708.7 493.738 1715.31 487.122C1721.8 480.641 1725.04 472.581 1725.04 462.86" fill="white"/>
<path d="M1754.21 452.386C1745.07 451.832 1737.72 444.495 1737.21 435.344H1777.17V434.907C1777.17 419.208 1767.15 408.747 1753.28 408.747C1738.64 408.747 1728.7 419.477 1728.7 433.413C1728.7 446.577 1738.99 458.179 1753.03 458.179C1763.24 458.179 1771.35 452.521 1775.7 442.043H1771.67C1768.76 448.172 1762.53 452.403 1755.3 452.403C1754.93 452.403 1754.59 452.403 1754.22 452.37" fill="white"/>
<path d="M1804.93 452.386C1814.07 451.832 1821.42 444.495 1821.92 435.344H1781.96V434.907C1781.96 419.208 1791.99 408.747 1805.86 408.747C1820.5 408.747 1830.44 419.477 1830.44 433.413C1830.44 446.577 1820.14 458.179 1806.11 458.179C1795.91 458.179 1787.81 452.521 1783.44 442.043H1787.49C1790.39 448.172 1796.62 452.403 1803.86 452.403C1804.23 452.403 1804.56 452.403 1804.93 452.37" fill="white"/>
<defs>
<linearGradient id="paint0_linear_1931_407577" x1="73.6768" y1="162.018" x2="225.062" y2="162.018" gradientUnits="userSpaceOnUse">
<stop offset="0.4062" stop-color="white" stop-opacity="0.8"/>
<stop offset="1" stop-color="white" stop-opacity="0.1"/>
</linearGradient>
</defs>
</svg>
