<svg xmlns="http://www.w3.org/2000/svg"
	 viewBox="0 0 32 32">
<style type="text/css">
	.st0{fill:#333366;}
</style>
<path class="st0" d="M30.2,16.3L30.2,16.3v-0.4l-0.1-0.1l-4.4-1.5l0.6-5c0-0.5-0.5-0.8-1-0.8h-1.2V5l-5.3-0.1l0,0h-0.3V0h-4.9v4.9
	h-6v3.6H6.3c-0.5,0-0.9,0.3-0.9,0.9L6,14.3l-3.7,1.3l-0.1,0.1L2,15.8l-0.1,0.4l3.6,14.2c-0.2,0.2-0.3,0.3-0.5,0.4
	c-0.6,0.3-1.2,0.3-1.7,0c0,0-0.1,0-0.2-0.2l0,0C3,30.5,3,30.4,2.9,30.4l0,0l-0.4-0.5l-0.8,0.6L2.1,31l0,0c0.1,0.1,0.1,0.2,0.2,0.3
	L2.7,31l0,0l-0.4,0.3c0.2,0.2,0.3,0.3,0.5,0.4C3.3,31.9,3.7,32,4.2,32s0.9-0.1,1.4-0.4c0.3-0.2,0.6-0.4,0.9-0.7l0,0l0,0l0,0l0,0l0,0
	l0,0l0,0l0,0l0,0l0,0l0,0l0,0l0,0l0,0l0,0l0,0l0,0l0,0l0,0l0,0l0,0c0.3-0.3,0.5-0.5,0.8-0.6C7.8,30,8.4,30,9,30.3
	c0.2,0.1,0.5,0.3,0.8,0.6c0.4,0.4,0.7,0.6,1,0.8c0.4,0.2,0.9,0.4,1.3,0.4c0.5,0,0.9-0.1,1.4-0.4c0.3-0.2,0.7-0.4,1-0.8
	c0.2-0.2,0.5-0.4,0.8-0.6c0.2-0.1,0.4-0.2,0.6-0.2c0.2,0,0.4,0.1,0.6,0.2c0.2,0.1,0.5,0.3,0.8,0.6c0.4,0.4,0.7,0.6,1,0.8
	c0.8,0.5,1.8,0.5,2.7,0c0.3-0.2,0.6-0.4,1-0.8c0.2-0.2,0.5-0.4,0.8-0.6c0.5-0.3,1.1-0.3,1.7,0c0.2,0.1,0.5,0.3,0.8,0.6
	c0.4,0.4,0.7,0.6,1,0.8c0.4,0.2,0.8,0.4,1.3,0.4c0.6,0,1.5-0.4,1.7-0.5l0,0c0.8-0.4,0.9-0.7,0.8-1L30,30.3L29.1,30l-0.2,0.2
	c-0.1,0.2-0.3,0.3-0.4,0.3l0,0c-0.3,0.2-0.9,0.4-1.1,0.4c-0.4,0-0.6-0.1-0.8-0.2l0,0l0,0L30.2,16.3z M2.7,30.9L2.7,30.9L2.7,30.9
	L2.7,30.9z M17.5,1v3.9h-2.9V1H17.5z M14,5.9h0.1H18L23.1,6v2.5H8.6V5.9H14z M8.1,9.5h15.5h1.7L24.8,14l-8.9-2.5L7,14L6.5,9.5H8.1z
	 M24.8,29.4c-0.9-0.5-1.9-0.5-2.7,0c-0.4,0.2-0.8,0.6-1,0.8c-0.3,0.3-0.5,0.5-0.8,0.6c-0.6,0.3-1.2,0.3-1.7,0
	c-0.2-0.1-0.5-0.3-0.8-0.6c-0.3-0.3-0.7-0.6-1-0.8c-0.3-0.2-0.7-0.3-1-0.3l0,0h-0.1l0,0l0,0l0,0l0,0l0,0l0,0h-0.1l0,0h-0.3v0.1
	c-0.2,0.1-0.5,0.1-0.7,0.3c-0.4,0.2-0.8,0.5-1,0.8c-0.3,0.3-0.5,0.5-0.8,0.6c-0.6,0.3-1.2,0.3-1.7,0c-0.2-0.1-0.5-0.3-0.8-0.6
	c-0.3-0.3-0.7-0.6-1-0.8c-0.9-0.5-1.8-0.5-2.7,0c-0.1,0.1-0.3,0.2-0.4,0.3L3.1,16.4l3.6-1.3l8.7-2.5v12.2h1V12.6l8.7,2.5l4.1,1.3
	L25.6,30C25.4,29.7,25.1,29.5,24.8,29.4z"/>
</svg>
