<svg xmlns="http://www.w3.org/2000/svg" xmlns:xlink="http://www.w3.org/1999/xlink" viewBox="0 0 800 800">
<path fill="#909090" d="M264.8,461.5c-60.4,30.1-118.1,58.8-191.1,80V400c0-11,5.5-21.3,14.6-27.5l54.5-37.1
	c4.7-3.2,13.1-5.8,18.7-5.8H249v-51.5h98.5v51.5H423c12.2,0,22.2,9.9,22.2,22.2v30.6C375.8,406.2,319.9,434,264.8,461.5z M249,227.2
	v26.7h98.5v-26.7c0-13.7-11.1-24.8-24.8-24.8h-48.9C260.1,202.4,249,213.5,249,227.2z M191.8,149.2c7.1,0,13.8-1.5,20-4.1
	c7,9.6,18.2,16,31,16c4.2,0,8.1-0.8,11.9-2.1c-0.1,0.7-0.2,1.4-0.2,2.1c0,13.1,10.6,23.8,23.8,23.8s23.8-10.6,23.8-23.8
	c0-13.1-10.6-23.8-23.8-23.8c0,0,0,0,0,0c1.9-4.5,2.9-9.4,2.9-14.6c0-21.2-17.2-38.3-38.3-38.3c-0.7,0-1.4,0.2-2.1,0.2
	c-6-21.5-25.5-37.4-48.9-37.4c-28.1,0-51,22.8-51,51C140.9,126.4,163.7,149.2,191.8,149.2z M690.7,648.1c-4.9,7.5-5.1,17.2-0.1,24.6
	l29.4,44c10.7,16.1-1.8,37.4-21,35.9L45.9,701.3c-17.8-1.4-32.6-13.9-37.1-31.1c-4-15.1-7.7-33.8-7.7-50.4
	c0-34.1,13.7-40.5,41.7-47.1c250.7-59.8,319.6-204,738-227.6c10.9-0.6,19.6,8.9,18.1,19.7C786.4,456.6,742.7,569,690.7,648.1z
	 M658.8,540.3c0-6.1-5-11.1-11.1-11.1c-6.1,0-11.1,5-11.1,11.1c0,17.1-11.4,31.5-27,36.3v-76.4c8.3-4.1,14.1-12.6,14.1-22.6
	c0-14-11.3-25.3-25.3-25.3c-14,0-25.3,11.3-25.3,25.3c0,10,5.8,18.5,14.3,22.7v76.4c-15.6-4.8-27-19.1-27-36.3
	c0-6.1-5-11.1-11.1-11.1c-6.1,0-11.1,5-11.1,11.1c0,33.2,27,60.3,60.3,60.3C631.8,600.6,658.8,573.6,658.8,540.3z"/>
</svg>
