
<svg xmlns="http://www.w3.org/2000/svg" viewBox="0 0 32 32">
<g>
	<path d="M17.4,27.8v-8.7c1.1-0.4,5-2.4,5-7.3c0-4.7-0.8-9.2-1.6-11.8h-9.7c0,0-1.5,6.4-1.5,11.8c0,4.9,3.9,6.9,5,7.3v8.7
		c-1.6,0.4-4.4,1.6-4.4,2.6c0,1.1,1.9,1.6,5.8,1.6c3.9,0,5.8-0.5,5.8-1.6C21.8,29.4,19,28.2,17.4,27.8z M11.7,1.6
		c0.1-0.2,0.1-0.4,0.1-0.6l8.3,0c0,0.1,0.1,0.3,0.1,0.5c0.1,0.6,0.3,1.4,0.5,2.6l-9.6-0.1C11.3,2.9,11.6,2.1,11.7,1.6z M16,31.1
		c-4,0-4.7-0.3-4.7-0.7c0-0.4,1.7-1.3,4-1.9c0.2,0,0.3-0.2,0.3-0.3v-9.3c0-0.1-0.1-0.3-0.2-0.3c-0.1,0-5-1.6-5-6.8
		c0-2.4,0.5-4.7,0.8-6.8h9.9c0,0.2,0,0.4,0.1,0.5c0.3,1.9,0.5,4,0.5,6.2c0,5.1-5,6.7-5.1,6.8c-0.1,0-0.2,0.2-0.2,0.3v9.3
		c0,0.1,0.1,0.3,0.3,0.3c2.3,0.6,4,1.6,4,1.9C20.6,30.8,20,31.1,16,31.1z"/>
	<path d="M13.1,8.1c-1.1,0-2,0.9-2,2s0.9,2,2,2s2-0.9,2-2S14.2,8.1,13.1,8.1z M13.1,11.3c-0.7,0-1.2-0.5-1.2-1.2s0.5-1.2,1.2-1.2
		s1.2,0.5,1.2,1.2S13.8,11.3,13.1,11.3z"/>
	<path d="M19,9.1c0.9,0,1.6-0.7,1.6-1.6S19.9,5.9,19,5.9s-1.6,0.7-1.6,1.6S18.2,9.1,19,9.1z M19,6.7c0.5,0,0.8,0.4,0.8,0.8
		c0,0.5-0.4,0.8-0.8,0.8c-0.5,0-0.8-0.4-0.8-0.8C18.2,7.1,18.6,6.7,19,6.7z"/>
	<path d="M17.7,15.2c0.7,0,1.3-0.6,1.3-1.3c0-0.7-0.6-1.3-1.3-1.3c-0.7,0-1.3,0.6-1.3,1.3C16.4,14.6,17,15.2,17.7,15.2z M17.7,13.2
		c0.4,0,0.7,0.3,0.7,0.7s-0.3,0.7-0.7,0.7c-0.4,0-0.7-0.3-0.7-0.7S17.2,13.2,17.7,13.2z"/>
</g>
</svg>
