<?xml version="1.0" encoding="utf-8"?>
<!-- Generator: Adobe Illustrator 26.3.1, SVG Export Plug-In . SVG Version: 6.00 Build 0)  -->
<svg xmlns="http://www.w3.org/2000/svg" xmlns:xlink="http://www.w3.org/1999/xlink" x="0px" y="0px"
	 viewBox="0 0 32 32" style="enable-background:new 0 0 32 32;" xml:space="preserve">
<g>
	<path d="M28.7,24.1L24.8,20c0.1-0.1,0.3-0.2,0.4-0.3l1.2-1.2c0.2-0.2,0.2-0.5,0-0.7c0,0-1.7-1.8-3.7-3.8c0.1-0.1,0.3-0.2,0.4-0.4
		l0.9-1c0.2-0.2,0.2-0.5,0-0.7c-2.2-2.3-5.2-5.5-6.7-7.1L17.5,5c0,0,0.1,0,0.1,0c0.1,0,0.1,0,0.2-0.1c0.1-0.1,0.1-0.2,0.1-0.3
		l-0.3-1.5l1.1-1c0.1-0.1,0.1-0.2,0.1-0.3c0-0.1-0.1-0.2-0.2-0.2L17,1.5l-0.7-1.3c-0.1-0.2-0.4-0.2-0.5,0l-0.7,1.3l-1.6,0.2
		c-0.1,0-0.2,0.1-0.2,0.2c0,0.1,0,0.2,0.1,0.3l1.1,1l-0.3,1.5c0,0.1,0,0.2,0.1,0.3C14.4,5,14.5,5,14.6,5l0.1,0
		c-1.5,1.6-4.5,4.7-6.7,7c-0.2,0.2-0.2,0.5,0,0.7l0.9,1c0.1,0.1,0.3,0.2,0.4,0.4c-2,2.1-3.7,3.8-3.7,3.8c-0.2,0.2-0.2,0.5,0,0.7
		l1.2,1.2C7,19.8,7.1,19.9,7.2,20l-3.9,4.1c-0.2,0.2-0.2,0.5,0,0.7l1.5,1.5c1.1,1.1,2.6,1.7,4.1,1.5c1.3-0.1,2.5-0.8,3.3-1.8
		c0.4,0.4,0.8,0.8,1.3,1.1v4.3c0,0.3,0.2,0.5,0.5,0.5h4.1c0.3,0,0.5-0.2,0.5-0.5v-4.3c0.5-0.3,0.9-0.7,1.3-1.1c0.8,1,2,1.6,3.3,1.8
		c1.5,0.2,3-0.4,4.1-1.5l1.5-1.5C28.9,24.6,28.9,24.3,28.7,24.1z M14.5,2.2l1-0.2c0.1,0,0.1-0.1,0.2-0.2L16,1.2l0.4,0.7
		c0,0.1,0.1,0.2,0.2,0.2l1.1,0.2l-0.6,0.7C17,3,17,3.1,17,3.2l0.1,0.9l-0.9-0.4c0,0-0.1,0-0.1,0c0,0-0.1,0-0.1,0L15,4.1l0.1-0.9
		c0-0.1,0-0.2-0.1-0.3L14.5,2.2z M9.1,12.3c0.6-0.7,2-2.1,3.5-3.6c1-1,1.9-2,2.6-2.7C15.5,5.5,15.8,5.2,16,5
		c0.2,0.2,0.5,0.5,0.8,0.9c0.7,0.8,1.7,1.7,2.6,2.7c1.4,1.5,2.8,3,3.5,3.6l-0.6,0.6c-0.5,0.5-1.1,0.8-1.8,0.7
		c-0.7-0.1-1.3-0.5-1.7-1.1c-0.1-0.1-0.2-0.2-0.4-0.2c-0.2,0-0.3,0.1-0.4,0.2l-0.2,0.3c-0.4,0.5-1.1,0.9-1.7,0.9
		c-0.7,0-1.3-0.3-1.7-0.9L14,12.4c-0.1-0.1-0.2-0.2-0.4-0.2c0,0,0,0,0,0c-0.2,0-0.3,0.1-0.4,0.2c-0.4,0.6-1,1-1.7,1.1
		c-0.7,0.1-1.3-0.2-1.8-0.7l-0.4-0.4L9.1,12.3z M6.8,18.1c0.6-0.6,2-2.1,3.5-3.6c0,0,0,0,0,0c0.4,0.1,0.9,0.2,1.3,0.2
		c0.8-0.1,1.5-0.4,2-1c0.6,0.7,1.5,1,2.4,1c0.9,0,1.7-0.4,2.4-1c0.5,0.6,1.3,0.9,2,1c0.5,0,0.9,0,1.3-0.2c0,0,0,0,0,0
		c1.5,1.6,2.9,3,3.5,3.6L24.4,19c-0.7,0.7-1.6,1-2.5,1c-1-0.1-1.8-0.6-2.3-1.5c-0.1-0.1-0.2-0.2-0.4-0.2c-0.2,0-0.3,0.1-0.4,0.2
		l-0.3,0.4C17.8,19.5,16.9,20,16,20c-0.9,0-1.8-0.4-2.4-1.2l-0.3-0.4c-0.1-0.1-0.3-0.2-0.4-0.2c-0.2,0-0.3,0.1-0.4,0.2
		c-0.5,0.8-1.4,1.4-2.3,1.5c-0.9,0.1-1.9-0.3-2.5-1L6.8,18.1z M17.5,31h-3.1v-3.3c0.5,0.2,1,0.3,1.5,0.3c0.5,0,1-0.1,1.5-0.3V31z
		 M26.5,25.6c-0.9,0.9-2,1.3-3.2,1.2C22,26.7,21,26,20.3,25c-0.1-0.1-0.2-0.2-0.4-0.2c-0.2,0-0.3,0.1-0.4,0.2l-0.4,0.4
		c-0.8,1-1.9,1.5-3.1,1.5c-1.2,0-2.3-0.5-3.1-1.5l-0.4-0.4c-0.1-0.1-0.3-0.2-0.4-0.2c-0.2,0-0.3,0.1-0.4,0.2c-0.7,1.1-1.8,1.7-3,1.9
		c-1.2,0.1-2.4-0.3-3.2-1.2l-1.1-1.2l3.7-3.9c0.7,0.3,1.4,0.5,2.1,0.4c1-0.1,2-0.6,2.7-1.4c0.8,0.9,1.9,1.4,3.1,1.4s2.3-0.5,3.1-1.4
		c0.7,0.8,1.6,1.3,2.7,1.4c0.7,0.1,1.4-0.1,2.1-0.4l3.7,3.9L26.5,25.6z"/>
	<path d="M20.1,17.6c0.6,0,1-0.5,1-1c0-0.6-0.5-1-1-1c-0.6,0-1,0.5-1,1C19.1,17.2,19.5,17.6,20.1,17.6z"/>
	<path d="M13.4,11.5c0.6,0,1-0.5,1-1s-0.5-1-1-1c-0.6,0-1,0.5-1,1S12.9,11.5,13.4,11.5z"/>
	<path d="M8.3,22.8c-0.6,0-1,0.5-1,1c0,0.6,0.5,1,1,1s1-0.5,1-1C9.3,23.2,8.9,22.8,8.3,22.8z"/>
</g>
</svg>
