
<svg xmlns="http://www.w3.org/2000/svg" viewBox="0 0 32 32">
<path d="M27.73,25.73c-0.01-0.13-0.1-0.25-0.22-0.31c-0.06-0.03-6.01-2.7-7.08-5.83c1.1-0.08,3.68-0.49,4.1-2.6
	c0.03-0.18-0.06-0.35-0.23-0.42c-0.06-0.02-5.5-2.31-7.78-8.86l1.96,0.96c0.07,0.03,0.14,0.05,0.21,0.05c0.1,0,0.21-0.03,0.29-0.1
	c0.15-0.11,0.22-0.29,0.18-0.47L18.71,5.6l1.98-1.81c0.14-0.13,0.19-0.32,0.14-0.5c-0.06-0.18-0.21-0.31-0.4-0.34l-2.77-0.38
	l-1.23-2.33c-0.17-0.32-0.69-0.32-0.86,0l-1.23,2.33l-2.77,0.38c-0.19,0.02-0.34,0.16-0.4,0.34c-0.06,0.18,0,0.38,0.14,0.5
	l1.98,1.81l-0.47,2.55c-0.03,0.18,0.04,0.36,0.19,0.47c0.15,0.11,0.34,0.13,0.51,0.05l2.06-1.01c-0.45,1.37-2.59,6.96-7.85,8.93
	c-0.15,0.06-0.25,0.2-0.24,0.36c0,0.1,0.09,2.4,3.82,2.66c-0.6,1.32-2.61,4.98-6.73,5.79c-0.13,0.03-0.24,0.13-0.29,0.26
	c-0.04,0.13-0.01,0.27,0.09,0.37c0.05,0.05,2.66,2.68,7.1,3.8V32h9.05v-2.4h-0.12c2.22-0.64,4.61-1.74,7.16-3.52
	C27.68,26,27.74,25.87,27.73,25.73z M14.01,5.03l-1.52-1.39l2.13-0.29c0.17-0.02,0.31-0.12,0.39-0.27L16,1.21l0.99,1.87
	c0.08,0.15,0.22,0.25,0.39,0.27l2.14,0.29l-1.52,1.39c-0.13,0.12-0.19,0.3-0.16,0.48l0.37,2l-1.97-0.97
	C16.16,6.5,16.08,6.48,16,6.48c-0.08,0-0.16,0.02-0.23,0.05L13.8,7.5l0.37-2C14.2,5.33,14.14,5.15,14.01,5.03z M19.78,31.25h-7.55
	v-0.9h7.55V31.25z M16.47,29.6h-2.17c-4.6-0.32-7.73-2.62-8.89-3.63c4.92-1.37,6.72-6.37,6.8-6.59c0.04-0.11,0.02-0.24-0.05-0.34
	c-0.07-0.1-0.18-0.16-0.3-0.16c-2.77-0.04-3.43-1.19-3.58-1.71c4.75-1.93,6.97-6.5,7.76-8.58c2.19,5.59,6.48,7.96,7.67,8.53
	c-0.63,1.71-3.61,1.73-3.76,1.73c0,0,0,0-0.01,0c-0.11,0-0.22,0.05-0.29,0.13c-0.07,0.09-0.1,0.2-0.08,0.31
	c0.59,3.1,5.32,5.68,7.02,6.52C22.81,28.36,19.41,29.4,16.47,29.6z"/>
</svg>
