
<svg xmlns="http://www.w3.org/2000/svg" viewBox="0 0 32 32">
<g>
	<path d="M30.51,25.52l-6.15-9.74c1.14-1.67,1.75-3.65,1.75-5.68C26.11,4.53,21.57,0,16,0S5.89,4.53,5.89,10.11
		c0,2.03,0.61,4,1.75,5.68l-6.15,9.74c-0.11,0.18-0.12,0.41,0,0.59C1.6,26.3,1.8,26.4,2.02,26.38l5.74-0.52l2.1,5.77
		c0.07,0.2,0.25,0.34,0.47,0.37c0.02,0,0.04,0,0.06,0c0.19,0,0.37-0.1,0.47-0.26L16,23.66l5.14,8.08c0.1,0.16,0.28,0.26,0.47,0.26
		c0.02,0,0.04,0,0.06,0c0.21-0.02,0.39-0.17,0.47-0.37l2.1-5.77l5.74,0.52c0.21,0.02,0.42-0.08,0.53-0.27
		C30.63,25.94,30.62,25.71,30.51,25.52z M7.02,10.11C7.02,5.15,11.04,1.13,16,1.12c3.63,0,6.91,2.19,8.3,5.54
		c1.39,3.36,0.62,7.22-1.95,9.79c-2.57,2.57-6.43,3.34-9.79,1.95C9.21,17.01,7.02,13.74,7.02,10.11z M10.52,30.18l-0.44-1.21
		L9.6,27.64l-0.93-2.57c-0.09-0.24-0.32-0.39-0.58-0.37l-2.45,0.22l-1.39,0.13l-1.2,0.11l5.33-8.43c0.21,0.24,0.42,0.46,0.65,0.68
		c0.27,0.27,0.69,0.6,0.86,0.74l4.16,2.44l0.67,1.05l0.63,0.98L10.52,30.18z M27.75,25.05l-1.39-0.13l-2.45-0.22
		c-0.25-0.02-0.49,0.13-0.58,0.37c-0.53,0.44-1.16,2.78-1.42,3.9l-0.44,1.21l-6.37-10.01c0.29,0.03,0.59,0.04,0.89,0.04
		c0.13,0,0.26,0,0.39-0.01c0.25-0.01,0.86-0.05,1.25-0.13c1.63-0.27,3.17-0.93,4.48-1.93c0.17-0.13,0.58-0.45,0.86-0.74
		c0.23-0.22,0.44-0.44,0.65-0.68l5.33,8.43L27.75,25.05z"/>
	<path d="M12.42,14.27c-0.04,0.21,0.05,0.42,0.22,0.55c0.17,0.13,0.4,0.14,0.59,0.04l2.75-1.45l2.75,1.44
		c0.19,0.1,0.42,0.08,0.59-0.04c0.17-0.13,0.26-0.34,0.22-0.55l-0.53-3.06l2.22-2.17c0.15-0.15,0.21-0.37,0.14-0.58
		c-0.07-0.2-0.24-0.35-0.45-0.38l-3.07-0.44l-1.38-2.78c-0.09-0.19-0.29-0.31-0.5-0.31h0c-0.21,0-0.41,0.12-0.5,0.31l-1.37,2.79
		l-3.07,0.45c-0.21,0.03-0.39,0.18-0.45,0.38c-0.07,0.2-0.01,0.43,0.14,0.58l2.23,2.16L12.42,14.27z M12.31,9.03l2.24-0.33
		c0.18-0.03,0.34-0.14,0.42-0.31l1-2.03l1.01,2.03c0.08,0.17,0.24,0.28,0.42,0.31l2.24,0.32l-1.62,1.58
		c-0.13,0.13-0.19,0.31-0.16,0.5l0.39,2.23l-2.01-1.05c-0.16-0.09-0.36-0.09-0.52,0l-2,1.06l0.38-2.23c0.03-0.18-0.03-0.37-0.16-0.5
		L12.31,9.03z"/>
	<path d="M16,17.97c3.18,0,6.04-1.91,7.26-4.85c1.22-2.94,0.54-6.32-1.7-8.57c-2.25-2.25-5.63-2.92-8.57-1.7
		c-2.94,1.22-4.85,4.08-4.85,7.26C8.14,14.44,11.66,17.96,16,17.97z M16,3.37c2.72,0,5.18,1.64,6.22,4.16
		c1.04,2.52,0.47,5.42-1.46,7.34c-1.93,1.93-4.82,2.5-7.34,1.46c-2.52-1.04-4.16-3.5-4.16-6.22C9.27,6.39,12.28,3.37,16,3.37z"/>
</g>
</svg>
