
<svg xmlns="http://www.w3.org/2000/svg" viewBox="0 0 32 32">
<path d="M31.95,12.3c-0.11-0.36-0.43-0.62-0.8-0.67l-9.84-1.43l-4.4-8.92c-0.17-0.34-0.52-0.56-0.89-0.56
	c-0.38,0-0.73,0.21-0.89,0.56l-4.4,8.92l-9.86,1.44c-0.38,0.06-0.69,0.32-0.81,0.67c-0.11,0.36-0.01,0.76,0.25,1.02l7.13,6.95
	L5.75,30.1c-0.07,0.38,0.08,0.76,0.39,0.98c0.31,0.22,0.71,0.25,1.05,0.07L16,26.53l8.81,4.63c0.14,0.07,0.31,0.11,0.46,0.11
	c0.21,0,0.41-0.07,0.59-0.2c0.31-0.22,0.46-0.6,0.39-0.98l-1.68-9.82l7.13-6.95C31.97,13.06,32.07,12.67,31.95,12.3z M23.14,19.16
	c-0.25,0.23-0.35,0.59-0.29,0.92l1.49,8.75l-7.85-4.13c-0.15-0.07-0.32-0.12-0.48-0.12s-0.34,0.04-0.48,0.12l-7.85,4.13l1.49-8.75
	c0.06-0.34-0.06-0.69-0.29-0.92l-6.36-6.18l8.78-1.27c0.34-0.04,0.63-0.26,0.79-0.57l3.91-7.95l3.93,7.95
	c0.15,0.31,0.44,0.53,0.79,0.57l8.78,1.27L23.14,19.16z"/>
</svg>
