
<svg xmlns="http://www.w3.org/2000/svg" viewBox="0 0 32 32">
<path fill-rule="evenodd" clip-rule="evenodd" d="M0.1,10.43c0.03-0.16,0.16-0.27,0.33-0.27c1.71,0.06,9.62-0.13,11.59,0.16
	c0.89,0.13,1.52,0.46,2.14,0.76c0.55,0.27,1.09,0.52,1.83,0.55c0.75-0.03,1.29-0.28,1.85-0.55c0.62-0.3,1.26-0.62,2.15-0.76
	c1.97-0.3,9.88-0.11,11.59-0.16c0.16-0.01,0.3,0.11,0.33,0.27c0.02,0.03,0.03,0.06,0.03,0.1c0.07,0.45,0.12,2.92-0.04,3.62
	c-0.08,0.35-0.31,0.55-0.57,0.67c-0.13,0.06-0.27,0.09-0.39,0.11c-0.06,0.48-0.21,1.54-0.56,2.61c-0.33,1-0.84,2.01-1.59,2.61
	c-2.75,2.18-6.84,2.22-9.16,0.39c-1.65-1.3-2.37-3.85-2.74-5.36c-0.11-0.46-0.24-0.92-0.27-1c-0.18-0.14-1.1-0.14-1.27,0
	c-0.02,0.09-0.15,0.54-0.27,1c-0.37,1.51-1.08,4.06-2.74,5.36c-2.32,1.83-6.41,1.8-9.16-0.39c-0.75-0.6-1.26-1.6-1.59-2.61
	c-0.35-1.07-0.5-2.12-0.56-2.61c-0.12-0.02-0.25-0.05-0.39-0.11C0.41,14.7,0.18,14.5,0.1,14.15c-0.15-0.69-0.1-3.17-0.04-3.62
	C0.07,10.5,0.08,10.46,0.1,10.43z M15.98,13.44c0.37,0,0.79-0.02,1.12,0.28c0.05,0.04,0.11,0.14,0.17,0.3c0.07,0.2,0.15,0.55,0.26,1
	c0.34,1.4,0.97,3.8,2.51,5.01c2.12,1.67,5.85,1.61,8.37-0.38c0.66-0.52,1.09-1.42,1.38-2.31c0.45-1.38,0.55-2.73,0.55-2.73
	c0.01-0.17,0.16-0.3,0.33-0.3c0,0,0.15,0,0.31-0.04c0.12-0.03,0.26-0.09,0.29-0.25c0.13-0.58,0.1-2.51,0.05-3.2
	c-2.15,0.03-9.38-0.13-11.24,0.15c-0.81,0.12-1.4,0.43-1.97,0.7c-0.64,0.31-1.26,0.58-2.11,0.62c0,0,0,0,0,0c-0.01,0-0.02,0-0.03,0
	c0,0,0,0,0,0c-0.85-0.03-1.47-0.31-2.1-0.62c-0.56-0.28-1.14-0.58-1.95-0.7c-1.87-0.28-9.1-0.12-11.24-0.15
	c-0.05,0.69-0.08,2.62,0.05,3.2c0.03,0.16,0.17,0.22,0.29,0.25c0.16,0.05,0.31,0.04,0.31,0.04c0.17-0.01,0.32,0.12,0.33,0.3
	c0,0,0.1,1.35,0.55,2.73c0.29,0.88,0.72,1.78,1.38,2.31c2.51,1.99,6.24,2.06,8.37,0.38c1.54-1.21,2.17-3.6,2.51-5.01
	c0.11-0.45,0.19-0.8,0.26-1c0.05-0.16,0.12-0.25,0.17-0.3C15.23,13.41,15.62,13.44,15.98,13.44z M13.32,13.74v1.77
	c0,2.74-2.22,4.96-4.96,4.96H8.07c-1.54,0-3.01-0.61-4.1-1.7c-1.09-1.09-1.7-2.56-1.7-4.1v-0.44c0-1.48,1.2-2.69,2.69-2.69h6.16
	c0.58,0,1.14,0.23,1.56,0.64C13.09,12.6,13.32,13.16,13.32,13.74z M12.68,13.74c0-0.41-0.16-0.81-0.46-1.1
	c-0.29-0.29-0.69-0.46-1.1-0.46H4.96c-1.13,0-2.04,0.92-2.04,2.04v0.44c0,1.37,0.54,2.68,1.51,3.64c0.97,0.97,2.28,1.51,3.64,1.51
	h0.29c2.38,0,4.31-1.93,4.31-4.31V13.74z M18.68,13.74c0-0.58,0.23-1.14,0.64-1.56c0.41-0.41,0.97-0.64,1.56-0.64h6.16
	c1.48,0,2.69,1.2,2.69,2.69v0.44c0,1.54-0.61,3.01-1.7,4.1c-1.09,1.09-2.56,1.7-4.1,1.7h-0.29c-2.74,0-4.96-2.22-4.96-4.96V13.74z
	 M19.32,13.74v1.77c0,2.38,1.93,4.31,4.31,4.31h0.29c1.37,0,2.68-0.54,3.64-1.51c0.97-0.97,1.51-2.28,1.51-3.64v-0.44
	c0-1.13-0.92-2.04-2.04-2.04h-6.16c-0.41,0-0.81,0.16-1.1,0.46C19.49,12.94,19.32,13.33,19.32,13.74z"/>
</svg>
