
<svg xmlns="http://www.w3.org/2000/svg" viewBox="0 0 32 32">
<g>
	<path d="M23.63,21.26v3.23c0,0.17,0.24,0.31,0.53,0.31c0.29,0,0.53-0.14,0.53-0.31v-3.23c0-0.17-0.24-0.31-0.53-0.31
		C23.86,20.94,23.63,21.08,23.63,21.26z"/>
	<path d="M25.48,24.8c0.25,0,0.45-0.14,0.45-0.31v-1.3h2.66c0.25,0,0.45-0.14,0.45-0.31v-1.62c0-0.17-0.2-0.31-0.45-0.31h-3.11
		c-0.25,0-0.45,0.14-0.45,0.31v3.23C25.03,24.66,25.23,24.8,25.48,24.8z M25.94,21.57h2.21v0.99h-2.21V21.57z"/>
	<path d="M23.06,20.96c-0.24-0.05-0.49,0.03-0.57,0.2l-1.13,2.34l-1.13-2.34c-0.08-0.16-0.34-0.25-0.57-0.2
		c-0.24,0.06-0.37,0.23-0.29,0.4l1.56,3.23c0.06,0.13,0.23,0.21,0.43,0.21c0.2,0,0.37-0.09,0.43-0.21l1.56-3.23
		C23.42,21.19,23.3,21.01,23.06,20.96z"/>
	<path d="M32,12.73c0-0.01,0-0.02,0-0.03c0-0.02-0.01-0.04-0.01-0.06c0-0.01,0-0.01,0-0.02c-0.01-0.03-0.02-0.05-0.03-0.08l0,0
		c-0.01-0.02-0.02-0.04-0.03-0.06l-4.29-7.33c-0.1-0.18-0.29-0.28-0.5-0.28H14.2c-0.01-0.06-0.03-0.13-0.05-0.19
		c-0.18-0.55-0.67-0.91-1.25-0.91h-0.57c-0.07,0-0.14-0.05-0.16-0.12L12,3.11c-0.18-0.55-0.67-0.91-1.25-0.91
		c-0.58,0-1.07,0.36-1.25,0.91L9.32,3.65C9.3,3.72,9.23,3.76,9.16,3.76H8.59c-0.58,0-1.07,0.36-1.25,0.91
		C7.32,4.74,7.31,4.8,7.29,4.87H4.86c-0.2,0-0.39,0.11-0.5,0.28l-4.29,7.33c-0.01,0.02-0.02,0.04-0.03,0.06l0,0
		c-0.01,0.03-0.02,0.05-0.03,0.08c0,0,0,0,0,0.01C0.01,12.65,0.01,12.68,0,12.7c0,0.01,0,0.02,0,0.02c0,0.02,0,0.04,0,0.05
		c0,0.01,0,0.02,0,0.03c0,0.02,0,0.03,0,0.05c0,0.01,0,0.02,0.01,0.03c0,0.02,0.01,0.03,0.01,0.05c0,0.01,0.01,0.02,0.01,0.03
		c0,0.01,0.01,0.03,0.02,0.04c0,0.01,0.01,0.02,0.02,0.03c0,0,0,0.01,0.01,0.02c0,0.01,0.01,0.02,0.02,0.02
		c0.01,0.01,0.01,0.02,0.02,0.03c0.01,0.01,0.02,0.03,0.03,0.04c0,0,0.01,0.01,0.01,0.02l15.43,16.28c0.01,0.01,0.01,0.01,0.02,0.02
		c0.01,0.01,0.01,0.01,0.02,0.02c0.02,0.02,0.04,0.03,0.06,0.05c0,0,0.01,0,0.01,0c0.02,0.01,0.04,0.02,0.06,0.03
		c0,0,0.01,0,0.01,0.01c0.05,0.02,0.1,0.04,0.15,0.04c0.01,0,0.01,0,0.02,0c0.03,0,0.05,0.01,0.08,0.01c0.05,0,0.11-0.01,0.16-0.02
		c0,0,0.01,0,0.01,0c0.01,0,0.02-0.01,0.04-0.01l0,0c0.01,0,0.02-0.01,0.02-0.01c0.01,0,0.02-0.01,0.02-0.01
		c0.01-0.01,0.02-0.01,0.03-0.02c0.01,0,0.01-0.01,0.02-0.01c0.01-0.01,0.02-0.01,0.03-0.02c0.01,0,0.01-0.01,0.02-0.01
		c0.01-0.01,0.02-0.02,0.03-0.02c0,0,0.01-0.01,0.01-0.01l0,0c0.01-0.01,0.02-0.02,0.03-0.03c0.01-0.01,0.01-0.01,0.01-0.02
		c0.01-0.01,0.01-0.02,0.02-0.02c0.01-0.01,0.01-0.01,0.02-0.02c0-0.01,0.01-0.01,0.01-0.02c0,0,0,0,0,0l2.18-2.34
		c1.27,1.68,3.27,2.78,5.53,2.78c3.82,0,6.93-3.11,6.93-6.93c0-2.38-1.21-4.49-3.05-5.74l3.76-3.97c0.01-0.01,0.01-0.01,0.01-0.02
		c0.01-0.01,0.02-0.03,0.03-0.04c0.01-0.01,0.01-0.02,0.02-0.03c0-0.01,0.01-0.02,0.02-0.02c0,0,0-0.01,0.01-0.01
		c0.01-0.01,0.01-0.02,0.02-0.03c0.01-0.01,0.01-0.03,0.02-0.04c0-0.01,0.01-0.02,0.01-0.04c0-0.01,0.01-0.03,0.01-0.04
		c0-0.01,0-0.02,0.01-0.04c0-0.01,0-0.03,0-0.04c0-0.01,0-0.02,0-0.04C32,12.76,32,12.75,32,12.73z M13.33,7.21l-0.18-0.54
		c-0.02-0.07,0-0.14,0.06-0.19l0.46-0.34c0.03-0.02,0.05-0.04,0.08-0.06c0.03-0.02,0.05-0.04,0.07-0.07h6.44l1.53,6.18H10.2
		l0.91-3.66l0.2,0.14c0.15,0.11,0.31,0.18,0.47,0.22c0.36,0.09,0.75,0.01,1.07-0.22C13.32,8.34,13.51,7.76,13.33,7.21z M8.43,5.03
		c0.03-0.08,0.08-0.12,0.16-0.12h0.57c0.57,0,1.07-0.37,1.25-0.91l0.18-0.54c0.06-0.19,0.26-0.19,0.32,0L11.08,4
		c0.18,0.54,0.68,0.91,1.25,0.91h0.57c0.1,0,0.14,0.06,0.16,0.12c0.01,0.03,0.01,0.07,0.01,0.09C13.04,5.15,13.02,5.18,13,5.21
		l-0.46,0.33c-0.46,0.34-0.65,0.93-0.48,1.47l0.18,0.54c0.03,0.1-0.02,0.16-0.06,0.19c-0.07,0.05-0.13,0.05-0.2,0l-0.46-0.33
		c-0.14-0.1-0.3-0.18-0.46-0.22c0,0-0.01,0-0.01,0c-0.02,0-0.04-0.01-0.06-0.01c-0.02,0-0.05-0.01-0.07-0.01c0,0,0,0-0.01,0
		c-0.05-0.01-0.11-0.01-0.16-0.01c-0.27,0-0.54,0.08-0.77,0.25L9.51,7.75c-0.06,0.05-0.13,0.05-0.2,0c-0.01,0-0.01-0.01-0.02-0.01
		C9.27,7.71,9.25,7.68,9.25,7.63c0-0.02,0-0.04,0.01-0.06l0.18-0.54c0.03-0.1,0.05-0.19,0.06-0.29c0-0.01,0-0.01,0-0.02
		c0-0.01,0-0.01,0-0.02c0.03-0.44-0.17-0.87-0.54-1.14l-0.5-0.39C8.44,5.15,8.44,5.14,8.43,5.13C8.42,5.09,8.42,5.06,8.43,5.03z
		 M5.19,6.02h2.48c0.05,0.05,0.1,0.09,0.15,0.13l0.46,0.33C8.31,6.5,8.33,6.53,8.34,6.56c0.01,0.03,0.01,0.07,0,0.1L8.16,7.21
		C7.99,7.76,8.17,8.34,8.64,8.68C9,8.94,9.45,9,9.85,8.86L9.02,12.2H1.57L5.19,6.02z M1.91,13.34h7.17l5.27,13.13L1.91,13.34z
		 M16,28.05l-5.68-14.7h11.37l-1.34,3.33c-0.06,0.15-0.05,0.3,0,0.44c-1.86,1.24-3.08,3.36-3.08,5.76c0,1.01,0.22,1.96,0.61,2.83
		L16,28.05z M30.06,22.87c0,3.23-2.63,5.86-5.86,5.86s-5.86-2.63-5.86-5.86s2.63-5.86,5.86-5.86S30.06,19.64,30.06,22.87z
		 M27.04,16.56c-0.87-0.39-1.83-0.62-2.85-0.62c-0.89,0-1.73,0.17-2.51,0.48l1.23-3.08h7.17L27.04,16.56z M22.98,12.2l-1.53-6.18
		h5.36l3.62,6.18H22.98z"/>
</g>
</svg>
